Coordinates
version=1
nRows=14
nColumns=36
inDegrees=yes

Units are S.I. units (second, meters, Newtons, ...)
If the header above contains a line with 'inDegrees', this indicates whether rotational values are in degrees (yes) or radians (no).

endheader
time	pelvis_tilt	pelvis_list	pelvis_rotation	pelvis_tx	pelvis_ty	pelvis_tz	hip_flexion_r	hip_adduction_r	hip_rotation_r	knee_angle_r	knee_angle_r_beta	ankle_angle_r	subtalar_angle_r	mtp_angle_r	hip_flexion_l	hip_adduction_l	hip_rotation_l	knee_angle_l	knee_angle_l_beta	ankle_angle_l	subtalar_angle_l	mtp_angle_l	lumbar_extension	lumbar_bending	lumbar_rotation	arm_flex_r	arm_add_r	arm_rot_r	elbow_flex_r	pro_sup_r	arm_flex_l	arm_add_l	arm_rot_l	elbow_flex_l	pro_sup_l
      6.73000000	    -31.39297576	      2.33365474	      0.20812807	     -0.34713461	      0.61289106	     -0.60174932	    102.92102265	    -13.38150013	      5.74501762	     97.40800422	      1.70009039	     32.18628777	      2.47932688	     -7.49999987	    101.60309958	    -13.96466561	      0.22037779	     95.49778376	      1.66675076	     29.91087311	      0.15122824	     -7.49999987	    -26.22573971	     -1.03153622	     -0.68305653	     91.96174188	     -7.00728114	     25.19287903	    114.83865983	    113.94606918	     90.68046356	     -5.36045753	     23.86709797	    113.36036064	    111.24289269
      6.74000000	    -31.35594770	      2.33609620	      0.25041017	     -0.34698315	      0.61304126	     -0.60203060	    102.85955958	    -13.44189659	      5.79155409	     97.41471070	      1.70020744	     32.40937276	      2.85586838	     -7.49999987	    101.52605824	    -13.91332441	      0.18188919	     95.48808438	      1.66658147	     30.09681732	      0.34806123	     -7.49999987	    -26.13122887	     -1.02234612	     -0.62522623	     91.96992355	     -7.06351818	     25.25193568	    114.85953963	    113.64041342	     90.58737333	     -5.25327185	     23.97025273	    113.35758840	    110.53569489
      6.75000000	    -31.30879508	      2.30800020	      0.23198053	     -0.34684534	      0.61338006	     -0.60224176	    102.74780435	    -13.41770154	      5.77292348	     97.35409497	      1.69914950	     32.37043705	      2.70140906	     -7.49999987	    101.44478381	    -13.90293208	      0.19015337	     95.46052470	      1.66610046	     30.08333271	      0.25085561	     -7.49999987	    -26.08876229	     -0.99959617	     -0.60163552	     92.02847236	     -7.00341837	     25.22480761	    114.78314652	    113.92135576	     90.57910760	     -5.21304372	     23.95286917	    113.38849558	    110.34037151
      6.76000000	    -31.29334494	      2.26361365	      0.22823972	     -0.34668870	      0.61375870	     -0.60253745	    102.65392949	    -13.41864391	      5.73402385	     97.28667516	      1.69797280	     32.32808879	      2.57426789	     -7.49999987	    101.38152947	    -13.85535794	      0.22865913	     95.40966106	      1.66521272	     30.08081100	      0.19097460	     -7.49999987	    -26.02106053	     -0.92918492	     -0.62528059	     92.12046857	     -6.90541293	     25.28081247	    114.71018375	    114.02065645	     90.63409039	     -5.28227566	     24.02490928	    113.49975391	    109.46801904
      6.77000000	    -31.26364253	      2.26354090	      0.20620777	     -0.34649183	      0.61409197	     -0.60278117	    102.57837315	    -13.38784795	      5.78221594	     97.25817788	      1.69747543	     32.32902861	      2.61936860	     -7.49999987	    101.30179875	    -13.85711501	      0.19991037	     95.38538950	      1.66478911	     30.10620003	      0.17904247	     -7.49999987	    -25.91413852	     -0.94594204	     -0.59237192	     92.14022391	     -6.87682222	     25.27201777	    114.69863561	    114.17985878	     90.60603182	     -5.23376060	     24.01637092	    113.49662489	    109.43057137
      6.78000000	    -31.25922665	      2.26276525	      0.22297233	     -0.34634858	      0.61442892	     -0.60303092	    102.51152858	    -13.39390761	      5.81685349	     97.19815522	      1.69642784	     32.43147631	      2.76499064	     -7.49999987	    101.22936232	    -13.81449250	      0.17110664	     95.33722273	      1.66394844	     30.23179688	      0.27681149	     -7.49999987	    -25.74635581	     -0.97958676	     -0.54959328	     92.10089751	     -6.96226701	     25.23554457	    114.73920335	    113.90229143	     90.50027220	     -5.10600447	     23.99277005	    113.47170062	    108.98675271
      6.79000000	    -31.21745083	      2.17519414	      0.22548081	     -0.34620661	      0.61496164	     -0.60329532	    102.33338786	    -13.36765337	      5.72752250	     97.07142782	      1.69421603	     32.12867937	      2.15612713	     -7.49999987	    101.17369254	    -13.75622638	      0.24703659	     95.29147019	      1.66314990	     29.93240066	     -0.10947319	     -7.49999987	    -25.63378930	     -0.90098919	     -0.44675674	     92.11379345	     -7.01710335	     25.19006509	    114.66536228	    114.60771323	     90.45470972	     -4.97722182	     23.97594445	    113.40163054	    109.11321632
      6.80000000	    -31.17660296	      2.10080569	      0.19594022	     -0.34590155	      0.61559349	     -0.60342996	    102.12049184	    -13.31754187	      5.64009357	     96.93962513	      1.69191563	     32.22095192	      2.08152714	     -7.49999987	    101.08303330	    -13.75339948	      0.33619544	     95.26307179	      1.66265426	     29.95179377	     -0.00670581	     -7.49999987	    -25.50079242	     -0.85251114	     -0.42567702	     92.04076687	     -6.98885581	     25.20237800	    114.62451058	    114.23382331	     90.45322631	     -4.97892416	     23.81161169	    113.13402215	    110.61455858
      6.81000000	    -31.18747817	      2.15170319	      0.09772240	     -0.34552623	      0.61631428	     -0.60332411	    101.98202857	    -13.17313913	      5.68660755	     96.77316507	      1.68901036	     32.33747155	      2.14434218	     -7.49999987	    100.95411414	    -13.87730226	      0.27743842	     95.16612520	      1.66096222	     30.05194762	      0.12672716	     -7.49999987	    -25.31681761	     -0.93677401	     -0.43295764	     91.96349799	     -6.79783574	     25.23581711	    114.55715237	    114.27471340	     90.42887206	     -5.11014961	     23.82721812	    113.24470466	    110.76143265
      6.82000000	    -31.19751261	      2.13613561	      0.01853906	     -0.34507894	      0.61704950	     -0.60343854	    101.84575841	    -13.09839435	      5.63471621	     96.65297792	      1.68691270	     32.43692747	      2.13774776	     -7.49999987	    100.85200715	    -13.94077207	      0.26202316	     95.11801716	      1.66012258	     30.17561781	      0.19059832	     -7.49999987	    -25.06422280	     -0.86183117	     -0.41481155	     91.86000615	     -6.51905724	     25.18708638	    114.36417233	    114.62849656	     90.25447679	     -5.34137019	     23.97108636	    113.46450520	    107.85483068
      6.83000000	    -31.18661751	      2.14877041	      0.06002040	     -0.34468317	      0.61801252	     -0.60380933	    101.69693790	    -13.17021817	      5.64419704	     96.50800843	      1.68438250	     32.33061500	      2.10201326	     -7.49999987	    100.65919199	    -13.83498104	      0.20653537	     94.94150149	      1.65704180	     30.12942348	      0.08523240	     -7.49999987	    -24.84119527	     -0.87818923	     -0.51316850	     91.66889414	     -6.46882044	     25.21540231	    114.16959917	    114.03858987	     90.22309812	     -5.34175421	     23.79425240	    113.12911841	    110.80832801
      6.84000000	    -31.07001832	      2.17087604	      0.11580697	     -0.34421669	      0.61927521	     -0.60419171	    101.40608168	    -13.28327458	      5.65365159	     96.35795419	      1.68176356	     32.55835017	      2.32493832	     -7.49999987	    100.33087857	    -13.73014466	      0.11368941	     94.76572311	      1.65397389	     30.27944138	      0.15251383	     -7.49999987	    -24.73125298	     -0.90723831	     -0.57175316	     91.50509370	     -6.45770635	     25.07765693	    113.99684911	    114.21479014	     90.12565651	     -5.24957366	     23.81722125	    113.03480037	    109.37575212
      6.85000000	    -31.03020237	      2.16652428	      0.10839038	     -0.34369448	      0.62055841	     -0.60430195	    101.13183188	    -13.28982791	      5.61713828	     96.13110546	      1.67780430	     32.68568126	      2.52938914	     -7.49999987	    100.09978996	    -13.73972687	      0.06314201	     94.61548479	      1.65135173	     30.37952908	      0.33593919	     -7.49999987	    -24.48600022	     -0.95161099	     -0.55155172	     91.22612520	     -6.44367394	     24.93328678	    113.81269679	    114.14026416	     89.96012261	     -5.15879849	     23.82183843	    112.96058302	    107.75939665
      6.86000000	    -31.02457950	      2.11143435	      0.00471233	     -0.34308567	      0.62193069	     -0.60410713	    100.89755578	    -13.18556763	      5.46110141	     95.93276211	      1.67434256	     32.42098115	      2.11884074	     -7.49999987	     99.89976023	    -13.88661300	      0.06060389	     94.40378590	      1.64765689	     30.25919466	      0.20810040	     -7.49999987	    -24.16965195	     -0.97825350	     -0.40360233	     90.91107928	     -6.42766191	     24.80355591	    113.66058301	    114.00561275	     89.72513344	     -5.16198368	     23.51648673	    112.29510462	    111.01475377
